<mxfile host="app.diagrams.net" modified="2024-05-22T12:18:00.830Z" agent="Mozilla/5.0 (Windows NT 10.0; Win64; x64) AppleWebKit/537.36 (KHTML, like Gecko) Chrome/124.0.0.0 Safari/537.36" etag="sd632AKxh27bAgtuKBBu" version="24.4.2" type="github">
  <diagram name="Sivu-1" id="mKQbyd3kxPPgr81X4ePe">
    <mxGraphModel dx="3558" dy="2354" grid="1" gridSize="10" guides="1" tooltips="1" connect="1" arrows="1" fold="1" page="1" pageScale="1" pageWidth="827" pageHeight="1169" math="0" shadow="0">
      <root>
        <mxCell id="0" />
        <mxCell id="1" parent="0" />
        <mxCell id="co7VD3hLq3T6lfHDUUdx-61" value="" style="edgeStyle=orthogonalEdgeStyle;rounded=0;orthogonalLoop=1;jettySize=auto;html=1;entryX=0.523;entryY=-0.042;entryDx=0;entryDy=0;entryPerimeter=0;" edge="1" parent="1" source="0m5QerFudpK0_N1F6iSb-1" target="0m5QerFudpK0_N1F6iSb-4">
          <mxGeometry relative="1" as="geometry">
            <mxPoint x="420" y="-20" as="targetPoint" />
          </mxGeometry>
        </mxCell>
        <mxCell id="0m5QerFudpK0_N1F6iSb-1" value="&lt;span style=&quot;text-align: start;&quot;&gt;&lt;span dir=&quot;ltr&quot; class=&quot;ui-provider da bai baj bak bal bam ban bao bap baq bar bas bat bau bav baw bax bay baz bba bbb bbc bbd bbe bbf bbg bbh bbi bbj bbk bbl bbm bbn bbo bbp&quot;&gt;Aloitetaan&lt;/span&gt;&lt;/span&gt;&lt;div&gt;&lt;span style=&quot;text-align: start;&quot;&gt;&lt;span dir=&quot;ltr&quot; class=&quot;ui-provider da bai baj bak bal bam ban bao bap baq bar bas bat bau bav baw bax bay baz bba bbb bbc bbd bbe bbf bbg bbh bbi bbj bbk bbl bbm bbn bbo bbp&quot;&gt;&amp;nbsp;Käynnistä sovellus (fitplan.py)&lt;/span&gt;&lt;/span&gt;&lt;/div&gt;" style="rounded=0;whiteSpace=wrap;html=1;" parent="1" vertex="1">
          <mxGeometry x="360" y="-35" width="120" height="60" as="geometry" />
        </mxCell>
        <mxCell id="co7VD3hLq3T6lfHDUUdx-57" value="" style="edgeStyle=orthogonalEdgeStyle;rounded=0;orthogonalLoop=1;jettySize=auto;html=1;" edge="1" parent="1" source="0m5QerFudpK0_N1F6iSb-4" target="0m5QerFudpK0_N1F6iSb-6">
          <mxGeometry relative="1" as="geometry">
            <Array as="points">
              <mxPoint x="414" y="330" />
              <mxPoint x="414" y="330" />
            </Array>
          </mxGeometry>
        </mxCell>
        <mxCell id="co7VD3hLq3T6lfHDUUdx-73" value="" style="edgeStyle=orthogonalEdgeStyle;rounded=0;orthogonalLoop=1;jettySize=auto;html=1;" edge="1" parent="1" source="0m5QerFudpK0_N1F6iSb-4" target="0m5QerFudpK0_N1F6iSb-38">
          <mxGeometry relative="1" as="geometry" />
        </mxCell>
        <mxCell id="co7VD3hLq3T6lfHDUUdx-76" value="" style="edgeStyle=orthogonalEdgeStyle;rounded=0;orthogonalLoop=1;jettySize=auto;html=1;" edge="1" parent="1" source="0m5QerFudpK0_N1F6iSb-4" target="co7VD3hLq3T6lfHDUUdx-59">
          <mxGeometry relative="1" as="geometry" />
        </mxCell>
        <mxCell id="0m5QerFudpK0_N1F6iSb-4" value="&lt;span style=&quot;text-align: start;&quot;&gt;&lt;span dir=&quot;ltr&quot; class=&quot;ui-provider da bai baj bak bal bam ban bao bap baq bar bas bat bau bav baw bax bay baz bba bbb bbc bbd bbe bbf bbg bbh bbi bbj bbk bbl bbm bbn bbo bbp&quot;&gt;Sovellus kysyy käyttäjältä seuraavat tiedot:&lt;br&gt;&amp;nbsp;&amp;nbsp;&amp;nbsp;&amp;nbsp;&amp;nbsp;&amp;nbsp;&amp;nbsp; - Pituus&lt;br&gt;&amp;nbsp;&amp;nbsp;&amp;nbsp;&amp;nbsp;&amp;nbsp;&amp;nbsp;&amp;nbsp; - Paino&lt;br&gt;&amp;nbsp;&amp;nbsp;&amp;nbsp;&amp;nbsp;&amp;nbsp;&amp;nbsp;&amp;nbsp; - Ikä&lt;br&gt;&amp;nbsp;&amp;nbsp;&amp;nbsp;&amp;nbsp;&amp;nbsp;&amp;nbsp;&amp;nbsp; - Tavoite (painonpudotus/-nosto)&lt;/span&gt;&lt;/span&gt;&lt;div&gt;&lt;span style=&quot;text-align: start;&quot;&gt;&lt;span dir=&quot;ltr&quot; class=&quot;ui-provider da bai baj bak bal bam ban bao bap baq bar bas bat bau bav baw bax bay baz bba bbb bbc bbd bbe bbf bbg bbh bbi bbj bbk bbl bbm bbn bbo bbp&quot;&gt;- Sukupuoli (mies tai nainen)&lt;/span&gt;&lt;/span&gt;&lt;/div&gt;" style="rounded=0;whiteSpace=wrap;html=1;" parent="1" vertex="1">
          <mxGeometry x="274" y="170" width="280" height="120" as="geometry" />
        </mxCell>
        <mxCell id="co7VD3hLq3T6lfHDUUdx-39" value="" style="edgeStyle=orthogonalEdgeStyle;rounded=0;orthogonalLoop=1;jettySize=auto;html=1;" edge="1" parent="1" source="0m5QerFudpK0_N1F6iSb-6">
          <mxGeometry relative="1" as="geometry">
            <mxPoint x="-120" y="410" as="targetPoint" />
          </mxGeometry>
        </mxCell>
        <mxCell id="co7VD3hLq3T6lfHDUUdx-41" value="" style="edgeStyle=orthogonalEdgeStyle;rounded=0;orthogonalLoop=1;jettySize=auto;html=1;entryX=-0.006;entryY=0.659;entryDx=0;entryDy=0;entryPerimeter=0;" edge="1" parent="1" source="0m5QerFudpK0_N1F6iSb-6" target="co7VD3hLq3T6lfHDUUdx-28">
          <mxGeometry relative="1" as="geometry">
            <mxPoint x="740.0000000000005" y="410" as="targetPoint" />
          </mxGeometry>
        </mxCell>
        <mxCell id="0m5QerFudpK0_N1F6iSb-6" value="&lt;span style=&quot;text-align: start;&quot;&gt;&lt;span dir=&quot;ltr&quot; class=&quot;ui-provider da bai baj bak bal bam ban bao bap baq bar bas bat bau bav baw bax bay baz bba bbb bbc bbd bbe bbf bbg bbh bbi bbj bbk bbl bbm bbn bbo bbp&quot;&gt;Käyttäjän syötteet tallennetaan muuttujiin:&lt;br&gt;&amp;nbsp;&amp;nbsp;&amp;nbsp;&amp;nbsp;&amp;nbsp;&amp;nbsp;&amp;nbsp; - Pituus (cm)&lt;br&gt;&amp;nbsp;&amp;nbsp;&amp;nbsp;&amp;nbsp;&amp;nbsp;&amp;nbsp;&amp;nbsp; - Paino (kg)&lt;br&gt;&amp;nbsp;&amp;nbsp;&amp;nbsp;&amp;nbsp;&amp;nbsp;&amp;nbsp;&amp;nbsp; - Ikä (vuodet)&lt;br&gt;&amp;nbsp; &amp;nbsp; &amp;nbsp; &amp;nbsp; - Tavoite (painonpudotus/-nosto)&lt;/span&gt;&lt;/span&gt;" style="rounded=0;whiteSpace=wrap;html=1;" parent="1" vertex="1">
          <mxGeometry x="280" y="350" width="280" height="120" as="geometry" />
        </mxCell>
        <mxCell id="0m5QerFudpK0_N1F6iSb-7" value="" style="endArrow=classic;html=1;rounded=0;" parent="1" edge="1">
          <mxGeometry width="50" height="50" relative="1" as="geometry">
            <mxPoint x="-200.2" y="500" as="sourcePoint" />
            <mxPoint x="-200.2" y="520" as="targetPoint" />
            <Array as="points">
              <mxPoint x="-200.2" y="520" />
              <mxPoint x="-200.2" y="510" />
            </Array>
          </mxGeometry>
        </mxCell>
        <mxCell id="0m5QerFudpK0_N1F6iSb-8" value="&lt;span style=&quot;caret-color: rgb(0, 0, 0); color: rgb(0, 0, 0); font-style: normal; font-variant-caps: normal; font-weight: 400; letter-spacing: normal; orphans: auto; text-align: start; text-indent: 0px; text-transform: none; white-space: normal; widows: auto; word-spacing: 0px; -webkit-text-stroke-width: 0px; text-decoration: none;&quot;&gt;&lt;span dir=&quot;ltr&quot; class=&quot;ui-provider da bai baj bak bal bam ban bao bap baq bar bas bat bau bav baw bax bay baz bba bbb bbc bbd bbe bbf bbg bbh bbi bbj bbk bbl bbm bbn bbo bbp&quot;&gt;Lasketaan käyttäjän perusaineenvaihdunta (BMR) käyttäen Harris-Benedict -kaavaa&lt;br&gt;&lt;/span&gt;&lt;/span&gt;" style="rounded=0;whiteSpace=wrap;html=1;" parent="1" vertex="1">
          <mxGeometry x="-340" y="550" width="280" height="120" as="geometry" />
        </mxCell>
        <mxCell id="0m5QerFudpK0_N1F6iSb-16" value="&lt;span style=&quot;text-align: start;&quot;&gt;&lt;span dir=&quot;ltr&quot; class=&quot;ui-provider da bai baj bak bal bam ban bao bap baq bar bas bat bau bav baw bax bay baz bba bbb bbc bbd bbe bbf bbg bbh bbi bbj bbk bbl bbm bbn bbo bbp&quot;&gt;Näytetään käyttäjälle päivittäinen suositeltu kalorimäärä ja treenipäiväkirja&lt;/span&gt;&lt;/span&gt;" style="rounded=0;whiteSpace=wrap;html=1;" parent="1" vertex="1">
          <mxGeometry x="420" y="1340" width="280" height="120" as="geometry" />
        </mxCell>
        <mxCell id="0m5QerFudpK0_N1F6iSb-17" value="" style="endArrow=classic;html=1;rounded=0;" parent="1" edge="1">
          <mxGeometry width="50" height="50" relative="1" as="geometry">
            <mxPoint x="560" y="1470" as="sourcePoint" />
            <mxPoint x="560" y="1490" as="targetPoint" />
            <Array as="points">
              <mxPoint x="560" y="1490" />
              <mxPoint x="560" y="1480" />
            </Array>
          </mxGeometry>
        </mxCell>
        <mxCell id="0m5QerFudpK0_N1F6iSb-18" value="&lt;span style=&quot;text-align: start;&quot;&gt;&lt;span dir=&quot;ltr&quot; class=&quot;ui-provider da bai baj bak bal bam ban bao bap baq bar bas bat bau bav baw bax bay baz bba bbb bbc bbd bbe bbf bbg bbh bbi bbj bbk bbl bbm bbn bbo bbp&quot;&gt;Sovellus päättyy&lt;/span&gt;&lt;/span&gt;" style="rounded=0;whiteSpace=wrap;html=1;" parent="1" vertex="1">
          <mxGeometry x="420" y="1500" width="280" height="120" as="geometry" />
        </mxCell>
        <mxCell id="0m5QerFudpK0_N1F6iSb-19" value="" style="endArrow=classic;html=1;rounded=0;" parent="1" edge="1">
          <mxGeometry width="50" height="50" relative="1" as="geometry">
            <mxPoint x="560" y="1630" as="sourcePoint" />
            <mxPoint x="560" y="1650" as="targetPoint" />
            <Array as="points">
              <mxPoint x="560" y="1650" />
              <mxPoint x="560" y="1640" />
            </Array>
          </mxGeometry>
        </mxCell>
        <mxCell id="0m5QerFudpK0_N1F6iSb-20" value="&lt;span style=&quot;caret-color: rgb(0, 0, 0); color: rgb(0, 0, 0); font-style: normal; font-variant-caps: normal; font-weight: 400; letter-spacing: normal; orphans: auto; text-align: start; text-indent: 0px; text-transform: none; white-space: normal; widows: auto; word-spacing: 0px; -webkit-text-stroke-width: 0px; text-decoration: none;&quot;&gt;&lt;span dir=&quot;ltr&quot; class=&quot;ui-provider da bai baj bak bal bam ban bao bap baq bar bas bat bau bav baw bax bay baz bba bbb bbc bbd bbe bbf bbg bbh bbi bbj bbk bbl bbm bbn bbo bbp&quot;&gt;&lt;br&gt;Jos käyttäjä haluaa nostaa painoa&lt;/span&gt;&lt;/span&gt;" style="rounded=0;whiteSpace=wrap;html=1;" parent="1" vertex="1">
          <mxGeometry x="-660" y="740" width="200" height="80" as="geometry" />
        </mxCell>
        <mxCell id="0m5QerFudpK0_N1F6iSb-23" value="" style="endArrow=classic;html=1;rounded=0;" parent="1" edge="1">
          <mxGeometry width="50" height="50" relative="1" as="geometry">
            <mxPoint x="-40" y="779.41" as="sourcePoint" />
            <mxPoint x="10" y="779.41" as="targetPoint" />
            <Array as="points" />
          </mxGeometry>
        </mxCell>
        <mxCell id="0m5QerFudpK0_N1F6iSb-24" value="If- lauseke käyttäjän tavoitteen perusteella" style="rounded=0;whiteSpace=wrap;html=1;" parent="1" vertex="1">
          <mxGeometry x="-340" y="720" width="280" height="120" as="geometry" />
        </mxCell>
        <mxCell id="0m5QerFudpK0_N1F6iSb-28" value="&lt;span style=&quot;text-align: start;&quot;&gt;&lt;span dir=&quot;ltr&quot; class=&quot;ui-provider da bai baj bak bal bam ban bao bap baq bar bas bat bau bav baw bax bay baz bba bbb bbc bbd bbe bbf bbg bbh bbi bbj bbk bbl bbm bbn bbo bbp&quot;&gt;&lt;br&gt;&amp;nbsp;&amp;nbsp;&amp;nbsp;&amp;nbsp;&amp;nbsp;&amp;nbsp;&amp;nbsp;Lisätään päivittäiseen KCAL määrään &lt;br&gt;+ 250kcal&lt;/span&gt;&lt;/span&gt;" style="rounded=0;whiteSpace=wrap;html=1;" parent="1" vertex="1">
          <mxGeometry x="-710" y="870" width="280" height="120" as="geometry" />
        </mxCell>
        <mxCell id="0m5QerFudpK0_N1F6iSb-29" value="&lt;span style=&quot;text-align: start;&quot;&gt;&lt;span dir=&quot;ltr&quot; class=&quot;ui-provider da bai baj bak bal bam ban bao bap baq bar bas bat bau bav baw bax bay baz bba bbb bbc bbd bbe bbf bbg bbh bbi bbj bbk bbl bbm bbn bbo bbp&quot;&gt;&lt;br&gt;Jos käyttäjä haluaa pudottaa painoa&lt;/span&gt;&lt;/span&gt;" style="rounded=0;whiteSpace=wrap;html=1;" parent="1" vertex="1">
          <mxGeometry x="60" y="735" width="170" height="90" as="geometry" />
        </mxCell>
        <mxCell id="co7VD3hLq3T6lfHDUUdx-74" value="" style="edgeStyle=orthogonalEdgeStyle;rounded=0;orthogonalLoop=1;jettySize=auto;html=1;" edge="1" parent="1" source="0m5QerFudpK0_N1F6iSb-38" target="0m5QerFudpK0_N1F6iSb-40">
          <mxGeometry relative="1" as="geometry" />
        </mxCell>
        <mxCell id="0m5QerFudpK0_N1F6iSb-38" value="&lt;div style=&quot;text-align: start;&quot;&gt;elif ikä &amp;gt; 18 AND&amp;nbsp;&lt;span style=&quot;background-color: initial;&quot;&gt;ikä &amp;gt;= 0&amp;nbsp;&lt;/span&gt;&lt;/div&gt;" style="rounded=0;whiteSpace=wrap;html=1;" parent="1" vertex="1">
          <mxGeometry x="620" y="195" width="190" height="70" as="geometry" />
        </mxCell>
        <mxCell id="co7VD3hLq3T6lfHDUUdx-75" value="" style="edgeStyle=orthogonalEdgeStyle;rounded=0;orthogonalLoop=1;jettySize=auto;html=1;" edge="1" parent="1" source="0m5QerFudpK0_N1F6iSb-40" target="co7VD3hLq3T6lfHDUUdx-53">
          <mxGeometry relative="1" as="geometry" />
        </mxCell>
        <mxCell id="0m5QerFudpK0_N1F6iSb-40" value="&lt;div style=&quot;&quot;&gt;Sovellus tulostaa, että &lt;br&gt;&quot;Sovellus tarkoitettu yli 18-vuotialle&quot;&lt;/div&gt;" style="rounded=0;whiteSpace=wrap;html=1;align=center;" parent="1" vertex="1">
          <mxGeometry x="880" y="185" width="230" height="90" as="geometry" />
        </mxCell>
        <mxCell id="co7VD3hLq3T6lfHDUUdx-1" value="&lt;font style=&quot;font-size: 14px;&quot;&gt;Mies&lt;/font&gt;" style="rounded=0;whiteSpace=wrap;html=1;" vertex="1" parent="1">
          <mxGeometry x="-280" y="385" width="160" height="90" as="geometry" />
        </mxCell>
        <mxCell id="co7VD3hLq3T6lfHDUUdx-5" value="" style="endArrow=classic;html=1;rounded=0;" edge="1" parent="1">
          <mxGeometry width="50" height="50" relative="1" as="geometry">
            <mxPoint x="-360" y="779.41" as="sourcePoint" />
            <mxPoint x="-410" y="779.41" as="targetPoint" />
            <Array as="points" />
          </mxGeometry>
        </mxCell>
        <mxCell id="co7VD3hLq3T6lfHDUUdx-6" value="Poistetaan päivittäisestä KCAL määrästä&lt;div&gt;- 500KCAL&lt;/div&gt;" style="rounded=0;whiteSpace=wrap;html=1;" vertex="1" parent="1">
          <mxGeometry x="-20" y="870" width="280" height="120" as="geometry" />
        </mxCell>
        <mxCell id="co7VD3hLq3T6lfHDUUdx-7" value="" style="endArrow=classic;html=1;rounded=0;" edge="1" parent="1">
          <mxGeometry width="50" height="50" relative="1" as="geometry">
            <mxPoint x="144.88" y="830" as="sourcePoint" />
            <mxPoint x="144.88" y="850" as="targetPoint" />
            <Array as="points">
              <mxPoint x="144.88" y="850" />
              <mxPoint x="144.88" y="840" />
            </Array>
          </mxGeometry>
        </mxCell>
        <mxCell id="co7VD3hLq3T6lfHDUUdx-9" value="" style="endArrow=classic;html=1;rounded=0;" edge="1" parent="1">
          <mxGeometry width="50" height="50" relative="1" as="geometry">
            <mxPoint x="-570.22" y="825" as="sourcePoint" />
            <mxPoint x="-570.22" y="845" as="targetPoint" />
            <Array as="points">
              <mxPoint x="-570.22" y="845" />
              <mxPoint x="-570.22" y="835" />
            </Array>
          </mxGeometry>
        </mxCell>
        <mxCell id="co7VD3hLq3T6lfHDUUdx-12" value="" style="endArrow=classic;html=1;rounded=0;" edge="1" parent="1">
          <mxGeometry width="50" height="50" relative="1" as="geometry">
            <mxPoint x="-570.22" y="1000" as="sourcePoint" />
            <mxPoint x="-570.22" y="1020" as="targetPoint" />
            <Array as="points">
              <mxPoint x="-570.22" y="1020" />
              <mxPoint x="-570.22" y="1010" />
            </Array>
          </mxGeometry>
        </mxCell>
        <mxCell id="co7VD3hLq3T6lfHDUUdx-44" value="" style="edgeStyle=orthogonalEdgeStyle;rounded=0;orthogonalLoop=1;jettySize=auto;html=1;entryX=0;entryY=0.5;entryDx=0;entryDy=0;" edge="1" parent="1" source="co7VD3hLq3T6lfHDUUdx-13" target="0m5QerFudpK0_N1F6iSb-16">
          <mxGeometry relative="1" as="geometry">
            <mxPoint x="-570" y="1280" as="targetPoint" />
            <Array as="points">
              <mxPoint x="-570" y="1400" />
            </Array>
          </mxGeometry>
        </mxCell>
        <mxCell id="co7VD3hLq3T6lfHDUUdx-13" value="Määritellään käyttäjälle oikea treeni ohjelma&lt;div&gt;(Lihaskunto treeni 1)&lt;/div&gt;" style="rounded=0;whiteSpace=wrap;html=1;" vertex="1" parent="1">
          <mxGeometry x="-710" y="1050" width="280" height="120" as="geometry" />
        </mxCell>
        <mxCell id="co7VD3hLq3T6lfHDUUdx-15" value="" style="endArrow=classic;html=1;rounded=0;" edge="1" parent="1">
          <mxGeometry width="50" height="50" relative="1" as="geometry">
            <mxPoint x="119.77999999999997" y="1000" as="sourcePoint" />
            <mxPoint x="119.77999999999997" y="1020" as="targetPoint" />
            <Array as="points">
              <mxPoint x="119.77999999999997" y="1020" />
              <mxPoint x="119.77999999999997" y="1010" />
            </Array>
          </mxGeometry>
        </mxCell>
        <mxCell id="co7VD3hLq3T6lfHDUUdx-18" value="" style="edgeStyle=orthogonalEdgeStyle;rounded=0;orthogonalLoop=1;jettySize=auto;html=1;entryX=0.5;entryY=0;entryDx=0;entryDy=0;" edge="1" parent="1" source="co7VD3hLq3T6lfHDUUdx-16" target="0m5QerFudpK0_N1F6iSb-16">
          <mxGeometry relative="1" as="geometry">
            <mxPoint x="380" y="1260" as="targetPoint" />
            <Array as="points">
              <mxPoint x="120" y="1250" />
              <mxPoint x="560" y="1250" />
            </Array>
          </mxGeometry>
        </mxCell>
        <mxCell id="co7VD3hLq3T6lfHDUUdx-16" value="Määritellään käyttäjälle oikea treeni ohjelma&lt;div&gt;(Cardiopohjainen treeni 2)&lt;/div&gt;" style="rounded=0;whiteSpace=wrap;html=1;" vertex="1" parent="1">
          <mxGeometry x="-20" y="1050" width="280" height="120" as="geometry" />
        </mxCell>
        <mxCell id="co7VD3hLq3T6lfHDUUdx-21" value="" style="endArrow=classic;html=1;rounded=0;" edge="1" parent="1">
          <mxGeometry width="50" height="50" relative="1" as="geometry">
            <mxPoint x="1129.8" y="465" as="sourcePoint" />
            <mxPoint x="1129.8" y="485" as="targetPoint" />
            <Array as="points">
              <mxPoint x="1129.8" y="485" />
              <mxPoint x="1129.8" y="475" />
            </Array>
          </mxGeometry>
        </mxCell>
        <mxCell id="co7VD3hLq3T6lfHDUUdx-22" value="&lt;span style=&quot;caret-color: rgb(0, 0, 0); color: rgb(0, 0, 0); font-style: normal; font-variant-caps: normal; font-weight: 400; letter-spacing: normal; orphans: auto; text-align: start; text-indent: 0px; text-transform: none; white-space: normal; widows: auto; word-spacing: 0px; -webkit-text-stroke-width: 0px; text-decoration: none;&quot;&gt;&lt;span dir=&quot;ltr&quot; class=&quot;ui-provider da bai baj bak bal bam ban bao bap baq bar bas bat bau bav baw bax bay baz bba bbb bbc bbd bbe bbf bbg bbh bbi bbj bbk bbl bbm bbn bbo bbp&quot;&gt;Lasketaan käyttäjän perusaineenvaihdunta (BMR) käyttäen Harris-Benedict -kaavaa&lt;br&gt;&lt;/span&gt;&lt;/span&gt;" style="rounded=0;whiteSpace=wrap;html=1;" vertex="1" parent="1">
          <mxGeometry x="990" y="515" width="280" height="120" as="geometry" />
        </mxCell>
        <mxCell id="co7VD3hLq3T6lfHDUUdx-23" value="&lt;span style=&quot;caret-color: rgb(0, 0, 0); color: rgb(0, 0, 0); font-style: normal; font-variant-caps: normal; font-weight: 400; letter-spacing: normal; orphans: auto; text-align: start; text-indent: 0px; text-transform: none; white-space: normal; widows: auto; word-spacing: 0px; -webkit-text-stroke-width: 0px; text-decoration: none;&quot;&gt;&lt;span dir=&quot;ltr&quot; class=&quot;ui-provider da bai baj bak bal bam ban bao bap baq bar bas bat bau bav baw bax bay baz bba bbb bbc bbd bbe bbf bbg bbh bbi bbj bbk bbl bbm bbn bbo bbp&quot;&gt;&lt;br&gt;Jos käyttäjä haluaa nostaa painoa&lt;/span&gt;&lt;/span&gt;" style="rounded=0;whiteSpace=wrap;html=1;" vertex="1" parent="1">
          <mxGeometry x="670" y="705" width="200" height="80" as="geometry" />
        </mxCell>
        <mxCell id="co7VD3hLq3T6lfHDUUdx-24" value="" style="endArrow=classic;html=1;rounded=0;" edge="1" parent="1">
          <mxGeometry width="50" height="50" relative="1" as="geometry">
            <mxPoint x="1290" y="744.41" as="sourcePoint" />
            <mxPoint x="1340" y="744.41" as="targetPoint" />
            <Array as="points" />
          </mxGeometry>
        </mxCell>
        <mxCell id="co7VD3hLq3T6lfHDUUdx-25" value="If- lauseke käyttäjän tavoitteen perusteella" style="rounded=0;whiteSpace=wrap;html=1;" vertex="1" parent="1">
          <mxGeometry x="990" y="685" width="280" height="120" as="geometry" />
        </mxCell>
        <mxCell id="co7VD3hLq3T6lfHDUUdx-26" value="&lt;span style=&quot;text-align: start;&quot;&gt;&lt;span dir=&quot;ltr&quot; class=&quot;ui-provider da bai baj bak bal bam ban bao bap baq bar bas bat bau bav baw bax bay baz bba bbb bbc bbd bbe bbf bbg bbh bbi bbj bbk bbl bbm bbn bbo bbp&quot;&gt;&lt;br&gt;&amp;nbsp;&amp;nbsp;&amp;nbsp;&amp;nbsp;&amp;nbsp;&amp;nbsp;&amp;nbsp;Lisätään päivittäiseen KCAL määrään &lt;br&gt;+ 250kcal&lt;/span&gt;&lt;/span&gt;" style="rounded=0;whiteSpace=wrap;html=1;" vertex="1" parent="1">
          <mxGeometry x="620" y="835" width="280" height="120" as="geometry" />
        </mxCell>
        <mxCell id="co7VD3hLq3T6lfHDUUdx-27" value="&lt;span style=&quot;&quot;&gt;&lt;span dir=&quot;ltr&quot; class=&quot;ui-provider da bai baj bak bal bam ban bao bap baq bar bas bat bau bav baw bax bay baz bba bbb bbc bbd bbe bbf bbg bbh bbi bbj bbk bbl bbm bbn bbo bbp&quot;&gt;&lt;br&gt;Jos käyttäjä haluaa pudottaa painoa&lt;/span&gt;&lt;/span&gt;" style="rounded=0;whiteSpace=wrap;html=1;align=center;" vertex="1" parent="1">
          <mxGeometry x="1390" y="700" width="170" height="90" as="geometry" />
        </mxCell>
        <mxCell id="co7VD3hLq3T6lfHDUUdx-28" value="&lt;font style=&quot;font-size: 14px;&quot;&gt;Nainen&lt;/font&gt;" style="rounded=0;whiteSpace=wrap;html=1;" vertex="1" parent="1">
          <mxGeometry x="1050" y="350" width="160" height="90" as="geometry" />
        </mxCell>
        <mxCell id="co7VD3hLq3T6lfHDUUdx-30" value="" style="endArrow=classic;html=1;rounded=0;" edge="1" parent="1">
          <mxGeometry width="50" height="50" relative="1" as="geometry">
            <mxPoint x="970" y="744.41" as="sourcePoint" />
            <mxPoint x="920" y="744.41" as="targetPoint" />
            <Array as="points" />
          </mxGeometry>
        </mxCell>
        <mxCell id="co7VD3hLq3T6lfHDUUdx-31" value="Poistetaan päivittäisestä KCAL määrästä&lt;div&gt;- 500KCAL&lt;/div&gt;" style="rounded=0;whiteSpace=wrap;html=1;" vertex="1" parent="1">
          <mxGeometry x="1310" y="835" width="280" height="120" as="geometry" />
        </mxCell>
        <mxCell id="co7VD3hLq3T6lfHDUUdx-32" value="" style="endArrow=classic;html=1;rounded=0;" edge="1" parent="1">
          <mxGeometry width="50" height="50" relative="1" as="geometry">
            <mxPoint x="1474.88" y="795" as="sourcePoint" />
            <mxPoint x="1474.88" y="815" as="targetPoint" />
            <Array as="points">
              <mxPoint x="1474.88" y="815" />
              <mxPoint x="1474.88" y="805" />
            </Array>
          </mxGeometry>
        </mxCell>
        <mxCell id="co7VD3hLq3T6lfHDUUdx-33" value="" style="endArrow=classic;html=1;rounded=0;" edge="1" parent="1">
          <mxGeometry width="50" height="50" relative="1" as="geometry">
            <mxPoint x="759.78" y="790" as="sourcePoint" />
            <mxPoint x="759.78" y="810" as="targetPoint" />
            <Array as="points">
              <mxPoint x="759.78" y="810" />
              <mxPoint x="759.78" y="800" />
            </Array>
          </mxGeometry>
        </mxCell>
        <mxCell id="co7VD3hLq3T6lfHDUUdx-34" value="" style="endArrow=classic;html=1;rounded=0;" edge="1" parent="1">
          <mxGeometry width="50" height="50" relative="1" as="geometry">
            <mxPoint x="759.78" y="965" as="sourcePoint" />
            <mxPoint x="759.78" y="985" as="targetPoint" />
            <Array as="points">
              <mxPoint x="759.78" y="985" />
              <mxPoint x="759.78" y="975" />
            </Array>
          </mxGeometry>
        </mxCell>
        <mxCell id="co7VD3hLq3T6lfHDUUdx-46" value="" style="edgeStyle=orthogonalEdgeStyle;rounded=0;orthogonalLoop=1;jettySize=auto;html=1;" edge="1" parent="1" source="co7VD3hLq3T6lfHDUUdx-35">
          <mxGeometry relative="1" as="geometry">
            <mxPoint x="560" y="1340" as="targetPoint" />
            <Array as="points">
              <mxPoint x="761" y="1250" />
              <mxPoint x="560" y="1250" />
            </Array>
          </mxGeometry>
        </mxCell>
        <mxCell id="co7VD3hLq3T6lfHDUUdx-35" value="Määritellään käyttäjälle oikea treeni ohjelma&lt;div&gt;(Lihasvoiman kehittäminen 3)&lt;/div&gt;" style="rounded=0;whiteSpace=wrap;html=1;" vertex="1" parent="1">
          <mxGeometry x="620" y="1015" width="280" height="120" as="geometry" />
        </mxCell>
        <mxCell id="co7VD3hLq3T6lfHDUUdx-36" value="" style="endArrow=classic;html=1;rounded=0;" edge="1" parent="1">
          <mxGeometry width="50" height="50" relative="1" as="geometry">
            <mxPoint x="1449.78" y="965" as="sourcePoint" />
            <mxPoint x="1449.78" y="985" as="targetPoint" />
            <Array as="points">
              <mxPoint x="1449.78" y="985" />
              <mxPoint x="1449.78" y="975" />
            </Array>
          </mxGeometry>
        </mxCell>
        <mxCell id="co7VD3hLq3T6lfHDUUdx-48" value="" style="edgeStyle=orthogonalEdgeStyle;rounded=0;orthogonalLoop=1;jettySize=auto;html=1;entryX=1;entryY=0.5;entryDx=0;entryDy=0;" edge="1" parent="1" source="co7VD3hLq3T6lfHDUUdx-37" target="0m5QerFudpK0_N1F6iSb-16">
          <mxGeometry relative="1" as="geometry">
            <mxPoint x="1450" y="1245" as="targetPoint" />
            <Array as="points">
              <mxPoint x="1450" y="1400" />
            </Array>
          </mxGeometry>
        </mxCell>
        <mxCell id="co7VD3hLq3T6lfHDUUdx-37" value="Määritellään käyttäjälle oikea treeni ohjelma&lt;div&gt;(Aerobinen Treeni 4)&lt;/div&gt;" style="rounded=0;whiteSpace=wrap;html=1;" vertex="1" parent="1">
          <mxGeometry x="1310" y="1015" width="280" height="120" as="geometry" />
        </mxCell>
        <mxCell id="co7VD3hLq3T6lfHDUUdx-53" value="&lt;span style=&quot;font-size: 14px;&quot;&gt;Ohjelma päättyy&lt;/span&gt;&lt;div&gt;&lt;span style=&quot;font-size: 14px;&quot;&gt;break;&lt;/span&gt;&lt;/div&gt;" style="rounded=0;whiteSpace=wrap;html=1;" vertex="1" parent="1">
          <mxGeometry x="1170" y="185" width="160" height="90" as="geometry" />
        </mxCell>
        <mxCell id="co7VD3hLq3T6lfHDUUdx-77" value="" style="edgeStyle=orthogonalEdgeStyle;rounded=0;orthogonalLoop=1;jettySize=auto;html=1;" edge="1" parent="1" source="co7VD3hLq3T6lfHDUUdx-59" target="co7VD3hLq3T6lfHDUUdx-70">
          <mxGeometry relative="1" as="geometry" />
        </mxCell>
        <mxCell id="co7VD3hLq3T6lfHDUUdx-59" value="&lt;div&gt;&lt;span style=&quot;background-color: initial;&quot;&gt;if-lauseke&lt;/span&gt;&lt;br&gt;&lt;/div&gt;&lt;div&gt;&lt;font style=&quot;font-size: 12px;&quot;&gt;pituus &amp;lt; 50 OR pituus &amp;gt; 250&lt;br&gt;&lt;/font&gt;&lt;div&gt;&lt;font style=&quot;font-size: 12px;&quot;&gt;paino &amp;lt; 30 OR paino &amp;gt; 175&lt;/font&gt;&lt;/div&gt;&lt;div&gt;&lt;font style=&quot;font-size: 12px;&quot;&gt;ikä &amp;lt; 0 OR ikä &amp;gt; 100&lt;/font&gt;&lt;/div&gt;&lt;/div&gt;&lt;div&gt;&lt;font style=&quot;font-size: 12px;&quot;&gt;tavoite IS NOT &quot;nosto&quot; or &quot;pudotus&quot;&lt;/font&gt;&lt;/div&gt;&lt;div style=&quot;--tw-border-spacing-x: 0; --tw-border-spacing-y: 0; --tw-translate-x: 0; --tw-translate-y: 0; --tw-rotate: 0; --tw-skew-x: 0; --tw-skew-y: 0; --tw-scale-x: 1; --tw-scale-y: 1; --tw-pan-x: ; --tw-pan-y: ; --tw-pinch-zoom: ; --tw-scroll-snap-strictness: proximity; --tw-ordinal: ; --tw-slashed-zero: ; --tw-numeric-figure: ; --tw-numeric-spacing: ; --tw-numeric-fraction: ; --tw-ring-inset: ; --tw-ring-offset-width: 0px; --tw-ring-offset-color: #fff; --tw-ring-color: rgb(59 130 246 / .5); --tw-ring-offset-shadow: 0 0 #0000; --tw-ring-shadow: 0 0 #0000; --tw-shadow: 0 0 #0000; --tw-shadow-colored: 0 0 #0000; --tw-blur: ; --tw-brightness: ; --tw-contrast: ; --tw-grayscale: ; --tw-hue-rotate: ; --tw-invert: ; --tw-saturate: ; --tw-sepia: ; --tw-drop-shadow: ; --tw-backdrop-blur: ; --tw-backdrop-brightness: ; --tw-backdrop-contrast: ; --tw-backdrop-grayscale: ; --tw-backdrop-hue-rotate: ; --tw-backdrop-invert: ; --tw-backdrop-opacity: ; --tw-backdrop-saturate: ; --tw-backdrop-sepia: ;&quot;&gt;&lt;font style=&quot;--tw-border-spacing-x: 0; --tw-border-spacing-y: 0; --tw-translate-x: 0; --tw-translate-y: 0; --tw-rotate: 0; --tw-skew-x: 0; --tw-skew-y: 0; --tw-scale-x: 1; --tw-scale-y: 1; --tw-pan-x: ; --tw-pan-y: ; --tw-pinch-zoom: ; --tw-scroll-snap-strictness: proximity; --tw-ordinal: ; --tw-slashed-zero: ; --tw-numeric-figure: ; --tw-numeric-spacing: ; --tw-numeric-fraction: ; --tw-ring-inset: ; --tw-ring-offset-width: 0px; --tw-ring-offset-color: #fff; --tw-ring-color: rgb(59 130 246 / .5); --tw-ring-offset-shadow: 0 0 #0000; --tw-ring-shadow: 0 0 #0000; --tw-shadow: 0 0 #0000; --tw-shadow-colored: 0 0 #0000; --tw-blur: ; --tw-brightness: ; --tw-contrast: ; --tw-grayscale: ; --tw-hue-rotate: ; --tw-invert: ; --tw-saturate: ; --tw-sepia: ; --tw-drop-shadow: ; --tw-backdrop-blur: ; --tw-backdrop-brightness: ; --tw-backdrop-contrast: ; --tw-backdrop-grayscale: ; --tw-backdrop-hue-rotate: ; --tw-backdrop-invert: ; --tw-backdrop-opacity: ; --tw-backdrop-saturate: ; --tw-backdrop-sepia: ;&quot;&gt;tavoite IS NOT &quot;mies&quot; or &quot;nainen&quot;&lt;/font&gt;&lt;/div&gt;&lt;div&gt;&lt;font style=&quot;--tw-border-spacing-x: 0; --tw-border-spacing-y: 0; --tw-translate-x: 0; --tw-translate-y: 0; --tw-rotate: 0; --tw-skew-x: 0; --tw-skew-y: 0; --tw-scale-x: 1; --tw-scale-y: 1; --tw-pan-x: ; --tw-pan-y: ; --tw-pinch-zoom: ; --tw-scroll-snap-strictness: proximity; --tw-ordinal: ; --tw-slashed-zero: ; --tw-numeric-figure: ; --tw-numeric-spacing: ; --tw-numeric-fraction: ; --tw-ring-inset: ; --tw-ring-offset-width: 0px; --tw-ring-offset-color: #fff; --tw-ring-color: rgb(59 130 246 / .5); --tw-ring-offset-shadow: 0 0 #0000; --tw-ring-shadow: 0 0 #0000; --tw-shadow: 0 0 #0000; --tw-shadow-colored: 0 0 #0000; --tw-blur: ; --tw-brightness: ; --tw-contrast: ; --tw-grayscale: ; --tw-hue-rotate: ; --tw-invert: ; --tw-saturate: ; --tw-sepia: ; --tw-drop-shadow: ; --tw-backdrop-blur: ; --tw-backdrop-brightness: ; --tw-backdrop-contrast: ; --tw-backdrop-grayscale: ; --tw-backdrop-hue-rotate: ; --tw-backdrop-invert: ; --tw-backdrop-opacity: ; --tw-backdrop-saturate: ; --tw-backdrop-sepia: ;&quot;&gt;&lt;br&gt;&lt;/font&gt;&lt;/div&gt;" style="rounded=0;whiteSpace=wrap;html=1;" vertex="1" parent="1">
          <mxGeometry x="-30" y="170" width="240" height="120" as="geometry" />
        </mxCell>
        <mxCell id="co7VD3hLq3T6lfHDUUdx-68" value="" style="edgeStyle=orthogonalEdgeStyle;rounded=0;orthogonalLoop=1;jettySize=auto;html=1;entryX=0;entryY=0.5;entryDx=0;entryDy=0;" edge="1" parent="1" source="co7VD3hLq3T6lfHDUUdx-64" target="0m5QerFudpK0_N1F6iSb-1">
          <mxGeometry relative="1" as="geometry">
            <mxPoint x="340" y="-5" as="targetPoint" />
          </mxGeometry>
        </mxCell>
        <mxCell id="co7VD3hLq3T6lfHDUUdx-64" value="&lt;div style=&quot;&quot;&gt;Sovellus tulostaa&lt;br&gt;&quot;antamasi &quot;arvo&quot; arvo ei ole kelvollinen, olehyvä ja yritä uudelleen.&quot;&lt;/div&gt;" style="rounded=0;whiteSpace=wrap;html=1;align=center;" vertex="1" parent="1">
          <mxGeometry x="-290" y="50" width="230" height="90" as="geometry" />
        </mxCell>
        <mxCell id="co7VD3hLq3T6lfHDUUdx-78" value="" style="edgeStyle=orthogonalEdgeStyle;rounded=0;orthogonalLoop=1;jettySize=auto;html=1;" edge="1" parent="1" source="co7VD3hLq3T6lfHDUUdx-70" target="co7VD3hLq3T6lfHDUUdx-64">
          <mxGeometry relative="1" as="geometry" />
        </mxCell>
        <mxCell id="co7VD3hLq3T6lfHDUUdx-70" value="&lt;div style=&quot;text-align: start;&quot;&gt;Aloitetaan &quot;While&quot; silmukka&lt;/div&gt;" style="rounded=0;whiteSpace=wrap;html=1;" vertex="1" parent="1">
          <mxGeometry x="-280" y="195" width="190" height="70" as="geometry" />
        </mxCell>
      </root>
    </mxGraphModel>
  </diagram>
</mxfile>
